<?xml version="1.0" encoding="UTF-8" standalone="no"?>
<svg width="512" height="512" viewBox="0 0 512 512" fill="none" xmlns="http://www.w3.org/2000/svg">
  <!-- Gradient Background -->
  <defs>
    <linearGradient id="bgGradient" x1="0%" y1="0%" x2="100%" y2="100%">
      <stop offset="0%" stop-color="#003A75" />
      <stop offset="100%" stop-color="#00A3FF" />
    </linearGradient>
    <linearGradient id="highlightGradient" x1="0%" y1="0%" x2="100%" y2="100%">
      <stop offset="0%" stop-color="#1CD3FF" stop-opacity="0.7" />
      <stop offset="100%" stop-color="#00A3FF" stop-opacity="0" />
    </linearGradient>
    <filter id="glow" x="-50%" y="-50%" width="200%" height="200%">
      <feGaussianBlur in="SourceGraphic" stdDeviation="10" result="blur" />
      <feComposite in="SourceGraphic" in2="blur" operator="over" />
    </filter>
    <!-- Neural Pattern Filters -->
    <filter id="neuralPattern" x="0" y="0" width="100%" height="100%">
      <feTurbulence type="fractalNoise" baseFrequency="0.01" numOctaves="3" seed="1" />
      <feDisplacementMap in="SourceGraphic" scale="5" />
    </filter>
  </defs>
  
  <!-- Main Circle Background -->
  <circle cx="256" cy="256" r="240" fill="url(#bgGradient)" />
  
  <!-- Neural Network Patterns - Decorative Elements -->
  <g opacity="0.15" stroke="#FFFFFF" stroke-width="1.5">
    <!-- Horizontal Lines -->
    <line x1="96" y1="150" x2="416" y2="150" />
    <line x1="96" y1="256" x2="416" y2="256" />
    <line x1="96" y1="362" x2="416" y2="362" />
    
    <!-- Vertical Lines -->
    <line x1="150" y1="96" x2="150" y2="416" />
    <line x1="256" y1="96" x2="256" y2="416" />
    <line x1="362" y1="96" x2="362" y2="416" />
    
    <!-- Connection Dots -->
    <circle cx="150" cy="150" r="8" fill="#FFFFFF" />
    <circle cx="150" cy="256" r="8" fill="#FFFFFF" />
    <circle cx="150" cy="362" r="8" fill="#FFFFFF" />
    <circle cx="256" cy="150" r="8" fill="#FFFFFF" />
    <circle cx="256" cy="256" r="12" fill="#FFFFFF" />
    <circle cx="256" cy="362" r="8" fill="#FFFFFF" />
    <circle cx="362" cy="150" r="8" fill="#FFFFFF" />
    <circle cx="362" cy="256" r="8" fill="#FFFFFF" />
    <circle cx="362" cy="362" r="8" fill="#FFFFFF" />
    
    <!-- Connection Lines -->
    <line x1="150" y1="150" x2="256" y2="256" />
    <line x1="150" y1="256" x2="256" y2="256" />
    <line x1="150" y1="362" x2="256" y2="256" />
    <line x1="256" y1="150" x2="256" y2="256" />
    <line x1="256" y1="362" x2="256" y2="256" />
    <line x1="362" y1="150" x2="256" y2="256" />
    <line x1="362" y1="256" x2="256" y2="256" />
    <line x1="362" y1="362" x2="256" y2="256" />
  </g>
  
  <!-- Highlight Overlay -->
  <circle cx="200" cy="180" r="180" fill="url(#highlightGradient)" />
  
  <!-- Glowing Outer Ring -->
  <circle cx="256" cy="256" r="244" stroke="#00A3FF" stroke-width="4" stroke-opacity="0.6" fill="none" filter="url(#glow)" />
  
  <!-- Center Logo -->
  <g transform="translate(176, 176) scale(1.6)">
    <path d="M50 20C61.05 20 70 28.95 70 40C70 51.05 61.05 60 50 60C38.95 60 30 51.05 30 40C30 28.95 38.95 20 50 20ZM57.5 40C57.5 41.38 56.38 42.5 55 42.5H52.5V45C52.5 46.38 51.38 47.5 50 47.5C48.62 47.5 47.5 46.38 47.5 45V42.5H45C43.62 42.5 42.5 41.38 42.5 40C42.5 38.62 43.62 37.5 45 37.5H47.5V35C47.5 33.62 48.62 32.5 50 32.5C51.38 32.5 52.5 33.62 52.5 35V37.5H55C56.38 37.5 57.5 38.62 57.5 40ZM85 40C85 47.5 81.25 54.25 75.75 58.75C80 52.5 80 42.5 72.5 35C65 27.5 52.5 27.5 45 35C37.5 42.5 37.5 55 45 62.5C52.5 70 65 70 72.5 62.5C67.75 68.25 60.75 72.5 52.5 72.5H47.5C28.75 72.5 15 56.25 15 40C15 23.75 28.75 7.5 47.5 7.5H52.5C71.25 7.5 85 23.75 85 40Z" fill="white" />
  </g>
  
  <!-- Pulse Effect -->
  <circle cx="370" cy="142" r="15" fill="#00A3FF" opacity="0.8">
    <animate attributeName="opacity" values="0.8;0.2;0.8" dur="2s" repeatCount="indefinite" />
    <animate attributeName="r" values="15;18;15" dur="2s" repeatCount="indefinite" />
  </circle>
</svg>