<?xml version="1.0" encoding="UTF-8"?>
<svg width="512" height="512" viewBox="0 0 512 512" fill="none" xmlns="http://www.w3.org/2000/svg">
  <!-- Background Gradient -->
  <defs>
    <linearGradient id="gradient" x1="0%" y1="0%" x2="100%" y2="100%">
      <stop offset="0%" stop-color="#005CB2" />
      <stop offset="50%" stop-color="#00A3FF" />
      <stop offset="100%" stop-color="#1CD3FF" />
    </linearGradient>
    <linearGradient id="glassGradient" x1="0%" y1="0%" x2="100%" y2="100%">
      <stop offset="0%" stop-color="rgba(255, 255, 255, 0.4)" />
      <stop offset="100%" stop-color="rgba(255, 255, 255, 0.1)" />
    </linearGradient>
    <radialGradient id="highlight" cx="30%" cy="30%" r="70%" fx="30%" fy="30%">
      <stop offset="0%" stop-color="rgba(255, 255, 255, 0.6)" />
      <stop offset="100%" stop-color="rgba(255, 255, 255, 0)" />
    </radialGradient>
    <filter id="glow" x="-20%" y="-20%" width="140%" height="140%">
      <feGaussianBlur stdDeviation="15" result="blur" />
      <feComposite in="SourceGraphic" in2="blur" operator="over" />
    </filter>
  </defs>
  
  <!-- Main Circle -->
  <circle cx="256" cy="256" r="256" fill="url(#gradient)" />
  
  <!-- Abstract Neural Network Patterns -->
  <g opacity="0.2">
    <circle cx="156" cy="186" r="12" fill="white" />
    <circle cx="356" cy="186" r="12" fill="white" />
    <circle cx="256" cy="366" r="12" fill="white" />
    <circle cx="156" cy="366" r="12" fill="white" />
    <circle cx="356" cy="366" r="12" fill="white" />
    <circle cx="216" cy="266" r="12" fill="white" />
    <circle cx="296" cy="266" r="12" fill="white" />
    
    <line x1="156" y1="186" x2="216" y2="266" stroke="white" stroke-width="2" />
    <line x1="356" y1="186" x2="296" y2="266" stroke="white" stroke-width="2" />
    <line x1="156" y1="366" x2="216" y2="266" stroke="white" stroke-width="2" />
    <line x1="356" y1="366" x2="296" y2="266" stroke="white" stroke-width="2" />
    <line x1="216" y1="266" x2="256" y2="366" stroke="white" stroke-width="2" />
    <line x1="296" y1="266" x2="256" y2="366" stroke="white" stroke-width="2" />
    <line x1="216" y1="266" x2="296" y2="266" stroke="white" stroke-width="2" />
  </g>
  
  <!-- Stylized "F" for FrankX -->
  <g filter="url(#glow)">
    <path d="M186 146H326V186H226V226H306V266H226V366H186V146Z" fill="white" />
    <path d="M326 146L376 196V246L326 296" stroke="white" stroke-width="10" stroke-linejoin="round" />
  </g>
  
  <!-- Circular Highlight -->
  <circle cx="256" cy="256" r="200" fill="url(#highlight)" opacity="0.3" />
  
  <!-- Glass Effect Overlay -->
  <circle cx="256" cy="256" r="200" fill="url(#glassGradient)" opacity="0.1" />
</svg>